<svg xmlns="http://www.w3.org/2000/svg" width="547" height="274" fill="none"><path fill="#fff" d="M0 0h547v274H0z"/><g filter="url(#a)"><rect width="483" height="44" x="32" y="22" fill="#DEDFFF" rx="11.003"/><rect width="481" height="42" x="33" y="23" stroke="#BBBCE2" stroke-width="2" rx="10.003"/><path fill="#131651" d="M192.112 50V39.206h3.4c.803 0 1.518.104 2.146.313.627.21 1.122.556 1.485 1.04s.545 1.145.545 1.98c0 .793-.182 1.448-.545 1.965a3.267 3.267 0 0 1-1.469 1.155c-.616.253-1.315.38-2.096.38h-1.552V50h-1.914Zm1.914-5.496h1.403c1.585 0 2.377-.655 2.377-1.964 0-.682-.209-1.15-.627-1.403-.407-.264-1.012-.396-1.816-.396h-1.337v3.763Zm10.474 5.694a3.762 3.762 0 0 1-1.882-.495 3.912 3.912 0 0 1-1.419-1.453c-.363-.638-.545-1.402-.545-2.294 0-.902.182-1.667.545-2.294.363-.638.836-1.122 1.419-1.452a3.668 3.668 0 0 1 1.882-.512c.682 0 1.315.17 1.898.512.583.33 1.056.814 1.419 1.452.364.627.545 1.392.545 2.294 0 .892-.181 1.656-.545 2.294a3.912 3.912 0 0 1-1.419 1.453 3.788 3.788 0 0 1-1.898.495Zm0-1.551c.594 0 1.062-.248 1.403-.743.341-.495.512-1.145.512-1.948 0-.814-.171-1.469-.512-1.964-.341-.495-.809-.742-1.403-.742s-1.062.247-1.403.742c-.33.495-.495 1.15-.495 1.964 0 .803.165 1.453.495 1.948.341.495.809.743 1.403.743Zm7.938 1.551a4.618 4.618 0 0 1-1.651-.313 5.502 5.502 0 0 1-1.419-.81l.891-1.22c.363.274.726.495 1.089.66a2.76 2.76 0 0 0 1.156.247c.44 0 .764-.093.973-.28a.894.894 0 0 0 .314-.694.688.688 0 0 0-.264-.56 2.14 2.14 0 0 0-.644-.397 14.233 14.233 0 0 0-.825-.347 8.953 8.953 0 0 1-1.056-.478 2.739 2.739 0 0 1-.842-.743c-.22-.308-.33-.688-.33-1.139 0-.715.264-1.298.792-1.75.528-.45 1.243-.676 2.146-.676.572 0 1.083.1 1.535.297.451.198.841.424 1.171.677l-.874 1.155a4.122 4.122 0 0 0-.875-.495 2.142 2.142 0 0 0-.908-.198c-.407 0-.71.088-.908.264a.781.781 0 0 0-.297.627c0 .32.165.561.495.727.331.164.716.324 1.156.478.374.132.737.297 1.089.495.352.187.644.435.875.743.242.308.363.715.363 1.221 0 .694-.27 1.288-.809 1.783-.539.484-1.32.726-2.343.726Zm7.379 0c-.935 0-1.601-.27-1.997-.809-.385-.55-.577-1.26-.577-2.129v-3.862h-1.156v-1.42l1.255-.082.231-2.212h1.584v2.212h2.063v1.502h-2.063v3.862c0 .947.38 1.42 1.139 1.42.143 0 .292-.017.446-.05.154-.044.286-.088.396-.132l.33 1.403c-.22.077-.473.143-.759.198a3.82 3.82 0 0 1-.892.1Zm5.77 3.384a6.062 6.062 0 0 1-1.733-.232c-.506-.154-.908-.39-1.205-.71-.286-.307-.429-.698-.429-1.171 0-.671.385-1.249 1.155-1.733v-.066a1.726 1.726 0 0 1-.528-.528c-.132-.22-.198-.495-.198-.826 0-.319.088-.605.264-.858a2.69 2.69 0 0 1 .627-.643v-.066c-.275-.21-.522-.501-.742-.875a2.55 2.55 0 0 1-.314-1.271c0-.627.148-1.155.446-1.585a2.81 2.81 0 0 1 1.171-.973 3.706 3.706 0 0 1 1.585-.347c.22 0 .429.022.627.066.209.033.396.077.561.132h2.905V43.3h-1.485c.132.154.242.352.33.594.088.231.132.49.132.776 0 .594-.138 1.1-.413 1.518a2.597 2.597 0 0 1-1.106.925 3.72 3.72 0 0 1-2.096.264 2.707 2.707 0 0 1-.561-.165c-.121.11-.22.22-.297.33a.863.863 0 0 0-.099.445.63.63 0 0 0 .281.545c.198.132.544.198 1.039.198h1.436c.98 0 1.717.16 2.212.479.506.308.759.814.759 1.518 0 .528-.176 1.007-.528 1.436-.352.44-.853.787-1.502 1.04s-1.414.38-2.294.38Zm.099-7.345c.385 0 .715-.143.99-.43.275-.285.413-.687.413-1.204 0-.506-.138-.897-.413-1.172a1.291 1.291 0 0 0-.99-.43 1.37 1.37 0 0 0-1.007.414c-.275.275-.413.67-.413 1.188 0 .517.138.919.413 1.205.275.286.611.429 1.007.429Zm.198 6.107c.649 0 1.177-.132 1.584-.396.408-.264.611-.567.611-.908 0-.32-.126-.534-.38-.644-.242-.11-.594-.165-1.056-.165h-1.106c-.44 0-.808-.038-1.105-.116-.419.32-.628.677-.628 1.073 0 .363.187.644.561.842.375.21.881.314 1.519.314ZM231.339 50v-8.104h1.568l.132 1.436h.066c.286-.528.633-.93 1.04-1.205.407-.286.825-.429 1.255-.429.385 0 .693.055.924.165l-.33 1.65a3.464 3.464 0 0 0-.396-.098 2.549 2.549 0 0 0-.446-.033c-.319 0-.655.126-1.007.38-.352.241-.655.67-.908 1.286V50h-1.898Zm9.462.198c-.748 0-1.425-.165-2.03-.495a3.72 3.72 0 0 1-1.436-1.453c-.352-.638-.528-1.402-.528-2.294 0-.88.176-1.64.528-2.277.363-.639.831-1.128 1.403-1.47a3.462 3.462 0 0 1 1.799-.51c.737 0 1.354.164 1.849.494.495.32.869.77 1.122 1.354.253.572.38 1.238.38 1.997 0 .396-.028.704-.083.924h-5.149c.088.715.346 1.27.775 1.667.429.396.969.594 1.618.594.352 0 .677-.05.974-.148.308-.11.61-.259.907-.446l.644 1.188a5.827 5.827 0 0 1-1.287.627 4.482 4.482 0 0 1-1.486.248Zm-2.162-5.017h3.598c0-.628-.137-1.117-.412-1.47-.276-.362-.688-.544-1.238-.544-.473 0-.897.176-1.271.528-.363.341-.589.836-.677 1.486Zm10.057 5.017a5.597 5.597 0 0 1-2.113-.413 5.527 5.527 0 0 1-1.783-1.171l1.123-1.304c.385.363.825.66 1.32.891.495.22.99.33 1.486.33.616 0 1.083-.127 1.403-.38a1.22 1.22 0 0 0 .478-1.006c0-.452-.159-.776-.478-.974a8.432 8.432 0 0 0-1.189-.61l-1.485-.645a5.848 5.848 0 0 1-1.04-.594 3.04 3.04 0 0 1-.825-.924c-.209-.374-.314-.825-.314-1.353 0-.573.154-1.084.462-1.535a3.281 3.281 0 0 1 1.288-1.09c.55-.275 1.177-.412 1.881-.412.627 0 1.233.126 1.816.38a4.588 4.588 0 0 1 1.502.99l-.974 1.221a4.371 4.371 0 0 0-1.089-.677 3.083 3.083 0 0 0-1.255-.247c-.506 0-.919.115-1.238.346-.308.22-.462.529-.462.925 0 .275.077.506.231.693.165.176.38.33.644.462.264.121.545.242.842.363l1.469.61c.638.276 1.16.639 1.568 1.09.407.44.61 1.05.61 1.832 0 .583-.154 1.117-.462 1.601-.308.484-.754.875-1.337 1.172-.572.286-1.265.43-2.079.43Zm10.033-1.568c.847 0 1.524-.363 2.03-1.09.506-.725.76-1.721.76-2.987 0-1.21-.254-2.156-.76-2.838-.506-.694-1.183-1.04-2.03-1.04-.847 0-1.524.346-2.03 1.04-.506.682-.759 1.628-.759 2.838 0 1.266.253 2.262.759 2.988s1.183 1.09 2.03 1.09Zm3.433 4.242c-1.067 0-1.969-.259-2.707-.776a4.718 4.718 0 0 1-1.617-1.98 4.458 4.458 0 0 1-2.03-.925c-.583-.484-1.034-1.117-1.354-1.898-.319-.792-.478-1.705-.478-2.74 0-1.166.198-2.162.594-2.987.407-.825.968-1.458 1.684-1.898.715-.44 1.54-.66 2.475-.66.947 0 1.777.22 2.492.66.716.44 1.271 1.073 1.667 1.898.408.825.611 1.821.611 2.987 0 1.497-.33 2.73-.99 3.698-.66.957-1.541 1.562-2.641 1.815.253.43.605.743 1.056.94.452.199.936.298 1.453.298.242 0 .456-.017.644-.05a4.82 4.82 0 0 0 .528-.115l.346 1.42a3.933 3.933 0 0 1-.726.214 4.662 4.662 0 0 1-1.007.099ZM265.658 50V39.206h1.915v9.176h4.489V50h-6.404Zm11.589 0V39.206h3.648c.748 0 1.419.099 2.013.297.606.198 1.079.534 1.42 1.007.352.462.528 1.095.528 1.898 0 .825-.198 1.49-.594 1.997-.385.506-.902.87-1.552 1.09L285.285 50h-2.145l-2.328-4.225h-1.65V50h-1.915Zm1.915-5.744h1.535c.737 0 1.298-.154 1.683-.462.396-.319.594-.781.594-1.386 0-.616-.198-1.046-.594-1.288-.385-.253-.946-.38-1.683-.38h-1.535v3.516Zm10.993 5.942c-.749 0-1.425-.165-2.03-.495a3.714 3.714 0 0 1-1.436-1.453c-.352-.638-.529-1.402-.529-2.294 0-.88.177-1.64.529-2.277.363-.639.83-1.128 1.403-1.47a3.46 3.46 0 0 1 1.799-.51c.737 0 1.353.164 1.848.494.495.32.869.77 1.122 1.354.253.572.38 1.238.38 1.997 0 .396-.027.704-.082.924h-5.15c.088.715.347 1.27.776 1.667.429.396.968.594 1.617.594.352 0 .677-.05.974-.148.308-.11.611-.259.908-.446l.643 1.188a5.827 5.827 0 0 1-1.287.627 4.476 4.476 0 0 1-1.485.248Zm-2.163-5.017h3.599c0-.628-.138-1.117-.413-1.47-.275-.362-.688-.544-1.238-.544-.473 0-.897.176-1.271.528-.363.341-.588.836-.677 1.486Zm7.062 8.02V41.897h1.568l.132.858h.066a5.803 5.803 0 0 1 1.139-.742 2.948 2.948 0 0 1 1.304-.314c1.012 0 1.793.374 2.343 1.122.561.749.842 1.75.842 3.004 0 .925-.165 1.717-.495 2.377-.33.65-.759 1.144-1.287 1.485a3.002 3.002 0 0 1-1.684.512c-.352 0-.704-.077-1.056-.231a4.757 4.757 0 0 1-1.024-.66l.05 1.353v2.542h-1.898Zm3.532-4.57c.539 0 .99-.237 1.353-.71.363-.474.545-1.167.545-2.08 0-.815-.138-1.447-.413-1.898-.275-.451-.72-.677-1.337-.677-.572 0-1.166.303-1.782.908v3.78c.297.242.583.417.858.528.275.099.534.148.776.148Zm7.633 1.567c-.672 0-1.15-.203-1.436-.61-.275-.408-.413-.963-.413-1.668v-9.572h1.898v9.671c0 .232.044.397.132.496a.395.395 0 0 0 .281.132h.115c.044-.011.105-.022.182-.033l.247 1.419a2.96 2.96 0 0 1-1.006.165Zm2.632-.198v-8.104h1.898V50h-1.898Zm.957-9.523c-.341 0-.616-.1-.825-.297-.209-.198-.314-.462-.314-.793 0-.319.105-.577.314-.775.209-.198.484-.297.825-.297.341 0 .616.099.825.297.209.198.314.456.314.775 0 .33-.105.595-.314.793-.209.198-.484.297-.825.297Zm6.746 9.721c-.737 0-1.403-.165-1.997-.495a3.792 3.792 0 0 1-1.403-1.453c-.341-.638-.512-1.402-.512-2.294 0-.902.187-1.667.562-2.294a3.765 3.765 0 0 1 1.485-1.452 4.15 4.15 0 0 1 2.014-.512c.517 0 .968.088 1.353.264.385.176.726.39 1.023.644l-.924 1.238a2.525 2.525 0 0 0-.644-.43 1.561 1.561 0 0 0-.709-.165c-.65 0-1.183.248-1.601.743-.408.495-.611 1.15-.611 1.964 0 .803.198 1.453.594 1.948.407.495.93.743 1.568.743.319 0 .616-.066.891-.198.286-.143.545-.308.776-.496l.776 1.255a3.82 3.82 0 0 1-1.255.742 4.098 4.098 0 0 1-1.386.248Zm6.043 0c-.704 0-1.282-.22-1.733-.66-.44-.44-.66-1.012-.66-1.717 0-.869.38-1.54 1.139-2.013.759-.484 1.969-.815 3.631-.99-.011-.43-.127-.798-.347-1.106-.209-.32-.588-.479-1.139-.479-.396 0-.786.077-1.171.231a8.042 8.042 0 0 0-1.106.561l-.693-1.27a8.117 8.117 0 0 1 1.518-.743 5.248 5.248 0 0 1 1.816-.314c1.012 0 1.766.303 2.261.908.506.594.759 1.458.759 2.591V50h-1.568l-.132-.891h-.066a5.853 5.853 0 0 1-1.172.776 2.885 2.885 0 0 1-1.337.313Zm.611-1.485c.33 0 .627-.077.891-.231.275-.166.567-.386.875-.66v-1.816c-1.1.143-1.865.357-2.294.644-.429.275-.644.616-.644 1.023 0 .363.11.627.33.792.22.165.501.248.842.248Zm8.533 1.485c-.935 0-1.601-.27-1.997-.809-.385-.55-.578-1.26-.578-2.129v-3.862h-1.155v-1.42l1.254-.082.231-2.212h1.585v2.212h2.063v1.502h-2.063v3.862c0 .947.379 1.42 1.139 1.42.143 0 .291-.017.445-.05.154-.044.286-.088.396-.132l.33 1.403c-.22.077-.473.143-.759.198-.275.066-.572.1-.891.1Zm3.108-.198v-8.104h1.898V50h-1.898Zm.958-9.523c-.342 0-.617-.1-.826-.297-.209-.198-.313-.462-.313-.793 0-.319.104-.577.313-.775.209-.198.484-.297.826-.297.341 0 .616.099.825.297.209.198.313.456.313.775 0 .33-.104.595-.313.793-.209.198-.484.297-.825.297Zm6.679 9.721a3.756 3.756 0 0 1-1.881-.495 3.922 3.922 0 0 1-1.42-1.453c-.363-.638-.544-1.402-.544-2.294 0-.902.181-1.667.544-2.294.364-.638.837-1.122 1.42-1.452a3.662 3.662 0 0 1 1.881-.512c.683 0 1.315.17 1.898.512.584.33 1.057.814 1.42 1.452.363.627.545 1.392.545 2.294 0 .892-.182 1.656-.545 2.294a3.907 3.907 0 0 1-1.42 1.453 3.786 3.786 0 0 1-1.898.495Zm0-1.551c.595 0 1.062-.248 1.403-.743.341-.495.512-1.145.512-1.948 0-.814-.171-1.469-.512-1.964-.341-.495-.808-.742-1.403-.742-.594 0-1.061.247-1.403.742-.33.495-.495 1.15-.495 1.964 0 .803.165 1.453.495 1.948.342.495.809.743 1.403.743ZM348.227 50v-8.104h1.568l.132 1.09h.066a6.268 6.268 0 0 1 1.189-.908c.429-.253.918-.38 1.469-.38.869 0 1.501.28 1.898.842.396.561.594 1.353.594 2.377V50h-1.898v-4.836c0-.671-.099-1.144-.297-1.42-.198-.274-.523-.412-.974-.412-.352 0-.666.088-.941.264a5.76 5.76 0 0 0-.908.743V50h-1.898Z"/></g><g filter="url(#b)"><rect width="216" height="44" x="32" y="104" fill="#C5E8ED" rx="11.003"/><rect width="214" height="42" x="33" y="105" stroke="#9BCBD2" stroke-width="2" rx="10.003"/><path fill="#000" d="M111.938 132v-10.794h3.4c.804 0 1.519.104 2.146.313.627.209 1.122.556 1.485 1.04.364.484.545 1.145.545 1.981 0 .792-.181 1.447-.545 1.964a3.263 3.263 0 0 1-1.468 1.155c-.617.253-1.315.38-2.097.38h-1.551V132h-1.915Zm1.915-5.496h1.403c1.584 0 2.377-.655 2.377-1.964 0-.682-.209-1.15-.628-1.403-.407-.264-1.012-.396-1.815-.396h-1.337v3.763ZM121.38 132v-11.652h1.898v3.003l-.066 1.568c.341-.319.72-.599 1.139-.841.418-.253.902-.38 1.452-.38.869 0 1.502.281 1.898.842.396.561.594 1.353.594 2.377V132h-1.898v-4.836c0-.671-.099-1.144-.297-1.419-.198-.275-.523-.413-.974-.413-.352 0-.665.088-.94.264-.265.165-.567.413-.908.743V132h-1.898Zm9.748 3.334c-.22 0-.413-.017-.578-.05a6.1 6.1 0 0 1-.479-.115l.347-1.486c.077.023.165.045.264.067.11.033.215.049.314.049.429 0 .77-.132 1.023-.396.264-.253.462-.583.594-.99l.149-.512-3.186-8.005h1.931l1.403 3.978c.121.352.237.726.347 1.122l.363 1.155h.066c.099-.374.198-.753.297-1.138.11-.396.215-.776.314-1.139l1.221-3.978h1.832l-2.938 8.467c-.341.913-.754 1.634-1.238 2.162-.484.539-1.166.809-2.046.809Zm9.888-3.136c-.55 0-1.1-.104-1.65-.314a5.49 5.49 0 0 1-1.42-.808l.891-1.222c.364.275.727.496 1.09.661.363.165.748.247 1.155.247.44 0 .765-.093.974-.28a.896.896 0 0 0 .313-.694.688.688 0 0 0-.264-.561 2.136 2.136 0 0 0-.643-.396 14.046 14.046 0 0 0-.826-.347 8.946 8.946 0 0 1-1.056-.478 2.752 2.752 0 0 1-.842-.743c-.22-.308-.33-.688-.33-1.139 0-.715.264-1.298.793-1.749.528-.451 1.243-.677 2.145-.677.572 0 1.084.099 1.535.297.451.198.842.424 1.172.677l-.875 1.155a4.096 4.096 0 0 0-.875-.495 2.138 2.138 0 0 0-.907-.198c-.407 0-.71.088-.908.264a.781.781 0 0 0-.297.627c0 .319.165.561.495.726.33.166.715.325 1.155.479.374.132.738.297 1.09.495.352.187.643.435.874.743.242.308.364.715.364 1.221 0 .694-.27 1.288-.809 1.783-.539.484-1.321.726-2.344.726Zm4.847-.198v-8.104h1.898V132h-1.898Zm.957-9.523c-.341 0-.616-.099-.825-.297-.209-.198-.314-.463-.314-.793 0-.319.105-.577.314-.775.209-.198.484-.297.825-.297.341 0 .616.099.825.297.21.198.314.456.314.775 0 .33-.104.595-.314.793-.209.198-.484.297-.825.297Zm6.746 9.721c-.737 0-1.403-.165-1.997-.495a3.788 3.788 0 0 1-1.403-1.453c-.341-.638-.512-1.402-.512-2.294 0-.902.187-1.667.562-2.294a3.765 3.765 0 0 1 1.485-1.452 4.15 4.15 0 0 1 2.014-.512c.517 0 .968.088 1.353.264.385.176.726.391 1.023.644l-.924 1.238a2.527 2.527 0 0 0-.644-.429 1.563 1.563 0 0 0-.709-.165c-.65 0-1.183.247-1.601.742-.407.495-.611 1.15-.611 1.964 0 .804.198 1.453.594 1.948.407.495.93.743 1.568.743.319 0 .616-.066.891-.198a4.25 4.25 0 0 0 .776-.496l.776 1.255c-.374.33-.792.577-1.255.742a4.074 4.074 0 0 1-1.386.248Zm6.043 0c-.704 0-1.282-.22-1.733-.66-.44-.44-.66-1.012-.66-1.717 0-.869.38-1.54 1.139-2.013.759-.484 1.97-.814 3.631-.991-.011-.429-.127-.797-.347-1.105-.209-.319-.588-.479-1.138-.479-.397 0-.787.077-1.172.231a8.041 8.041 0 0 0-1.106.561l-.693-1.271a8.115 8.115 0 0 1 1.518-.742 5.249 5.249 0 0 1 1.816-.314c1.012 0 1.766.303 2.261.908.506.594.759 1.458.759 2.591V132h-1.568l-.132-.891h-.066a5.85 5.85 0 0 1-1.172.775c-.407.21-.853.314-1.337.314Zm.611-1.485c.33 0 .627-.077.891-.231.275-.165.567-.386.875-.661v-1.815c-1.1.143-1.865.357-2.294.644-.429.275-.644.616-.644 1.023 0 .363.11.627.33.792.22.165.501.248.842.248Zm7.784 1.485c-.671 0-1.15-.204-1.436-.611-.275-.407-.412-.962-.412-1.667v-9.572h1.898v9.671c0 .231.044.397.132.496a.393.393 0 0 0 .28.132h.116c.044-.011.104-.022.181-.033l.248 1.419c-.11.044-.253.083-.429.116a2.982 2.982 0 0 1-.578.049Z"/></g><g filter="url(#c)"><rect width="94" height="64" x="32" y="188" fill="#fff" rx="11.003"/><rect width="92" height="62" x="33" y="189" stroke="#C5E8ED" stroke-width="2" rx="10.003"/><path fill="#000" d="M67.516 216v-10.794h1.914v9.177h4.49V216h-6.404Zm11.227.198a3.758 3.758 0 0 1-1.881-.495 3.907 3.907 0 0 1-1.42-1.453c-.363-.638-.544-1.402-.544-2.294 0-.902.181-1.667.544-2.294.364-.638.837-1.122 1.42-1.452a3.665 3.665 0 0 1 1.881-.512c.683 0 1.315.171 1.898.512.584.33 1.057.814 1.42 1.452.363.627.544 1.392.544 2.294 0 .892-.181 1.656-.544 2.294a3.907 3.907 0 0 1-1.42 1.453 3.79 3.79 0 0 1-1.898.495Zm0-1.551c.595 0 1.062-.248 1.403-.743.341-.495.512-1.144.512-1.948 0-.814-.17-1.469-.512-1.964-.34-.495-.808-.742-1.403-.742-.594 0-1.061.247-1.403.742-.33.495-.495 1.15-.495 1.964 0 .804.165 1.453.495 1.948.341.495.81.743 1.403.743Zm8.564 4.935a6.026 6.026 0 0 1-1.734-.232c-.506-.154-.907-.39-1.204-.709-.286-.308-.43-.699-.43-1.172 0-.671.386-1.249 1.156-1.733v-.066a1.727 1.727 0 0 1-.528-.528c-.132-.22-.198-.495-.198-.825 0-.32.088-.606.264-.859.187-.264.396-.478.627-.643v-.066c-.275-.21-.523-.501-.743-.875a2.56 2.56 0 0 1-.313-1.271c0-.627.148-1.155.445-1.585a2.811 2.811 0 0 1 1.172-.973 3.702 3.702 0 0 1 1.585-.347c.22 0 .429.022.627.066.209.033.396.077.56.132H91.5v1.403h-1.486c.132.154.242.352.33.594.088.231.132.49.132.776 0 .594-.137 1.1-.412 1.518a2.599 2.599 0 0 1-1.106.925 3.723 3.723 0 0 1-2.096.264 2.71 2.71 0 0 1-.561-.165c-.121.11-.22.22-.297.33a.86.86 0 0 0-.1.445c0 .231.094.413.281.545.198.132.545.198 1.04.198h1.436c.98 0 1.716.16 2.212.479.506.308.759.814.759 1.518 0 .528-.176 1.007-.528 1.436-.352.44-.853.787-1.502 1.04-.65.253-1.414.38-2.294.38Zm.099-7.345c.385 0 .715-.143.99-.429.275-.286.412-.688.412-1.205 0-.506-.137-.897-.412-1.172a1.292 1.292 0 0 0-.99-.429c-.397 0-.732.137-1.007.413-.275.275-.413.671-.413 1.188 0 .517.138.919.413 1.205.275.286.61.429 1.007.429Zm.198 6.107c.649 0 1.177-.132 1.584-.396.407-.265.61-.567.61-.908 0-.319-.126-.534-.379-.644-.242-.11-.594-.165-1.056-.165h-1.106a4.49 4.49 0 0 1-1.106-.115c-.418.319-.627.676-.627 1.072 0 .363.187.644.561.842.374.209.88.314 1.519.314Zm-35.721 17.854c-.727 0-1.43-.137-2.113-.413a5.513 5.513 0 0 1-1.783-1.171l1.123-1.304c.385.363.825.66 1.32.891.495.22.99.33 1.486.33.616 0 1.084-.126 1.403-.38a1.22 1.22 0 0 0 .478-1.006c0-.451-.16-.776-.478-.974a8.358 8.358 0 0 0-1.189-.611l-1.485-.643a5.92 5.92 0 0 1-1.04-.595 3.041 3.041 0 0 1-.825-.924c-.21-.374-.314-.825-.314-1.353 0-.573.154-1.084.462-1.535.32-.462.748-.826 1.288-1.09.55-.275 1.177-.412 1.881-.412.627 0 1.233.126 1.816.379a4.582 4.582 0 0 1 1.502.991l-.974 1.221a4.374 4.374 0 0 0-1.09-.677 3.076 3.076 0 0 0-1.254-.247c-.506 0-.919.115-1.238.346-.308.22-.462.529-.462.925 0 .275.077.506.231.693.165.176.38.33.644.462.264.121.545.242.842.363l1.469.611c.638.275 1.16.638 1.568 1.089.407.44.61 1.051.61 1.832 0 .583-.154 1.117-.462 1.601-.308.484-.754.875-1.337 1.172-.572.286-1.265.429-2.08.429Zm5.676-.198v-11.652h1.898v3.003l-.066 1.568c.341-.319.72-.599 1.139-.841.418-.253.902-.38 1.452-.38.87 0 1.502.281 1.898.842.396.561.595 1.353.595 2.377V236h-1.898v-4.836c0-.671-.1-1.144-.298-1.419-.198-.275-.522-.413-.973-.413-.352 0-.666.088-.941.264a5.764 5.764 0 0 0-.908.743V236H57.56Zm9.203 0v-8.104h1.898V236h-1.898Zm.958-9.523c-.341 0-.617-.099-.826-.297-.209-.198-.313-.463-.313-.793 0-.319.104-.577.313-.775.21-.198.485-.297.826-.297.34 0 .616.099.825.297.209.198.314.456.314.775 0 .33-.105.595-.314.793-.21.198-.484.297-.825.297Zm3.362 12.725v-11.306h1.568l.132.858h.066c.341-.286.72-.533 1.139-.742.429-.209.864-.314 1.304-.314 1.012 0 1.793.374 2.344 1.122.56.749.841 1.75.841 3.004 0 .925-.165 1.717-.495 2.377-.33.649-.76 1.144-1.287 1.485a2.991 2.991 0 0 1-1.684.512c-.352 0-.704-.077-1.056-.231a4.752 4.752 0 0 1-1.023-.66l.05 1.353v2.542h-1.899Zm3.532-4.572c.54 0 .99-.236 1.353-.71.364-.473.545-1.166.545-2.079 0-.814-.137-1.447-.412-1.898-.276-.451-.721-.677-1.337-.677-.573 0-1.167.303-1.783.908v3.779c.297.242.583.419.858.529.275.099.534.148.776.148Zm5.784 4.572v-11.306h1.568l.132.858h.066c.341-.286.721-.533 1.14-.742.428-.209.863-.314 1.303-.314 1.012 0 1.793.374 2.344 1.122.56.749.841 1.75.841 3.004 0 .925-.165 1.717-.495 2.377-.33.649-.759 1.144-1.287 1.485a2.991 2.991 0 0 1-1.684.512c-.352 0-.704-.077-1.056-.231a4.752 4.752 0 0 1-1.023-.66l.05 1.353v2.542h-1.899Zm3.532-4.572c.54 0 .99-.236 1.354-.71.363-.473.544-1.166.544-2.079 0-.814-.137-1.447-.412-1.898-.275-.451-.721-.677-1.337-.677-.572 0-1.166.303-1.783.908v3.779c.297.242.583.419.859.529.275.099.533.148.775.148Zm5.784 1.37v-8.104h1.898V236h-1.897Zm.958-9.523c-.341 0-.616-.099-.825-.297-.21-.198-.314-.463-.314-.793 0-.319.105-.577.314-.775.209-.198.484-.297.825-.297.34 0 .616.099.825.297.21.198.314.456.314.775 0 .33-.105.595-.314.793-.209.198-.484.297-.825.297ZM94.034 236v-8.104h1.568l.132 1.089h.066c.363-.352.76-.654 1.189-.907.429-.253.918-.38 1.468-.38.87 0 1.502.281 1.898.842.397.561.595 1.353.595 2.377V236h-1.898v-4.836c0-.671-.1-1.144-.298-1.419-.198-.275-.522-.413-.973-.413-.352 0-.666.088-.941.264a5.768 5.768 0 0 0-.908.743V236h-1.898Zm12.058 3.582a6.026 6.026 0 0 1-1.733-.232c-.506-.154-.908-.39-1.205-.709-.286-.308-.429-.699-.429-1.172 0-.671.385-1.249 1.155-1.733v-.066a1.727 1.727 0 0 1-.528-.528c-.132-.22-.198-.495-.198-.825 0-.32.088-.606.264-.859.187-.264.396-.478.627-.643v-.066c-.275-.21-.522-.501-.742-.875a2.562 2.562 0 0 1-.314-1.271c0-.627.149-1.155.446-1.585a2.806 2.806 0 0 1 1.172-.973 3.7 3.7 0 0 1 1.584-.347c.22 0 .429.022.627.066.209.033.396.077.561.132h2.905v1.403h-1.485c.132.154.242.352.33.594.088.231.132.49.132.776 0 .594-.138 1.1-.413 1.518a2.597 2.597 0 0 1-1.105.925 3.73 3.73 0 0 1-2.097.264 2.707 2.707 0 0 1-.561-.165c-.121.11-.22.22-.297.33a.86.86 0 0 0-.099.445c0 .231.094.413.281.545.198.132.544.198 1.04.198h1.435c.98 0 1.717.16 2.212.479.506.308.759.814.759 1.518 0 .528-.176 1.007-.528 1.436-.352.44-.853.787-1.502 1.04s-1.414.38-2.294.38Zm.099-7.345c.385 0 .715-.143.99-.429.275-.286.413-.688.413-1.205 0-.506-.138-.897-.413-1.172a1.291 1.291 0 0 0-.99-.429c-.396 0-.732.137-1.007.413-.275.275-.412.671-.412 1.188 0 .517.137.919.412 1.205.275.286.611.429 1.007.429Zm.198 6.107c.649 0 1.178-.132 1.585-.396.407-.265.61-.567.61-.908 0-.319-.126-.534-.379-.644-.242-.11-.594-.165-1.057-.165h-1.105c-.441 0-.809-.038-1.106-.115-.418.319-.627.676-.627 1.072 0 .363.187.644.561.842.374.209.88.314 1.518.314Z"/></g><g filter="url(#d)"><rect width="216" height="64" x="299" y="188" fill="#fff" rx="11.003"/><rect width="214" height="62" x="300" y="189" stroke="#F5E3CE" stroke-width="2" rx="10.003"/><path fill="#000" d="M364.231 216v-10.794h3.4c.803 0 1.518.104 2.145.313.628.209 1.123.556 1.486 1.04s.544 1.145.544 1.981c0 .792-.181 1.447-.544 1.964a3.266 3.266 0 0 1-1.469 1.155c-.616.253-1.315.38-2.096.38h-1.552V216h-1.914Zm1.914-5.496h1.403c1.585 0 2.377-.655 2.377-1.964 0-.682-.209-1.15-.627-1.403-.407-.264-1.013-.396-1.816-.396h-1.337v3.763Zm9.937 5.694c-.87 0-1.502-.281-1.898-.842-.396-.561-.595-1.353-.595-2.376v-5.084h1.899v4.836c0 .671.099 1.144.297 1.419.198.276.517.413.957.413.352 0 .66-.088.924-.264.275-.176.567-.462.875-.858v-5.546h1.898V216h-1.551l-.149-1.188h-.05a4.689 4.689 0 0 1-1.155 1.006c-.418.254-.902.38-1.452.38Zm10.689 0c-.77 0-1.507-.352-2.211-1.056h-.05l-.165.858h-1.502v-11.652h1.898v3.003l-.049 1.354a4.667 4.667 0 0 1 1.122-.726 2.904 2.904 0 0 1 1.221-.281c1.013 0 1.799.374 2.361 1.122.561.749.841 1.744.841 2.988 0 .924-.165 1.716-.495 2.376-.33.65-.759 1.15-1.287 1.502a2.993 2.993 0 0 1-1.684.512Zm-.396-1.568c.539 0 .99-.236 1.354-.71.363-.473.544-1.166.544-2.079 0-.814-.137-1.447-.412-1.898-.275-.451-.721-.677-1.337-.677-.572 0-1.167.303-1.783.908v3.779c.286.242.567.419.842.529.286.099.55.148.792.148Zm7.617 1.568c-.671 0-1.15-.204-1.436-.611-.275-.407-.413-.962-.413-1.667v-9.572h1.898v9.671c0 .231.044.397.132.496a.395.395 0 0 0 .281.132h.115c.044-.011.105-.022.182-.033l.248 1.419c-.11.044-.253.083-.43.116a2.971 2.971 0 0 1-.577.049Zm2.632-.198v-8.104h1.898V216h-1.898Zm.957-9.523c-.341 0-.616-.099-.825-.297-.209-.198-.313-.463-.313-.793 0-.319.104-.577.313-.775.209-.198.484-.297.825-.297.341 0 .617.099.826.297.209.198.313.456.313.775 0 .33-.104.595-.313.793-.209.198-.485.297-.826.297Zm6.746 9.721c-.737 0-1.403-.165-1.997-.495a3.788 3.788 0 0 1-1.403-1.453c-.341-.638-.511-1.402-.511-2.294 0-.902.187-1.667.561-2.294a3.765 3.765 0 0 1 1.485-1.452 4.153 4.153 0 0 1 2.014-.512c.517 0 .968.088 1.353.264.385.176.726.391 1.023.644l-.924 1.238a2.51 2.51 0 0 0-.644-.429 1.563 1.563 0 0 0-.709-.165c-.649 0-1.183.247-1.601.742-.407.495-.611 1.15-.611 1.964 0 .804.198 1.453.594 1.948.407.495.93.743 1.568.743.319 0 .616-.066.892-.198.286-.143.544-.309.775-.496l.776 1.255c-.374.33-.792.577-1.254.742a4.084 4.084 0 0 1-1.387.248Zm6.043 0c-.704 0-1.281-.22-1.733-.66-.44-.44-.66-1.012-.66-1.717 0-.869.38-1.54 1.139-2.013.759-.484 1.97-.814 3.631-.991-.011-.429-.126-.797-.346-1.105-.21-.319-.589-.479-1.139-.479-.396 0-.787.077-1.172.231a8.041 8.041 0 0 0-1.106.561l-.693-1.271a8.115 8.115 0 0 1 1.518-.742 5.253 5.253 0 0 1 1.816-.314c1.012 0 1.766.303 2.261.908.506.594.759 1.458.759 2.591V216h-1.568l-.132-.891h-.066a5.85 5.85 0 0 1-1.172.775 2.87 2.87 0 0 1-1.337.314Zm.611-1.485c.33 0 .627-.077.891-.231.275-.165.567-.386.875-.661v-1.815c-1.1.143-1.865.357-2.294.644-.429.275-.644.616-.644 1.023 0 .363.11.627.33.792.22.165.501.248.842.248Zm8.533 1.485c-.935 0-1.601-.27-1.997-.809-.385-.55-.578-1.26-.578-2.129v-3.862h-1.155v-1.419l1.254-.083.231-2.212h1.585v2.212h2.063v1.502h-2.063v3.862c0 .946.38 1.42 1.139 1.42.143 0 .291-.017.445-.05.154-.044.286-.088.396-.132l.331 1.403c-.22.077-.474.143-.76.198a3.812 3.812 0 0 1-.891.099Zm3.108-.198v-8.104h1.898V216h-1.898Zm.958-9.523c-.341 0-.616-.099-.826-.297-.209-.198-.313-.463-.313-.793 0-.319.104-.577.313-.775.21-.198.485-.297.826-.297.341 0 .616.099.825.297.209.198.314.456.314.775 0 .33-.105.595-.314.793-.209.198-.484.297-.825.297Zm6.68 9.721a3.757 3.757 0 0 1-1.882-.495 3.907 3.907 0 0 1-1.419-1.453c-.364-.638-.545-1.402-.545-2.294 0-.902.181-1.667.545-2.294.363-.638.836-1.122 1.419-1.452a3.664 3.664 0 0 1 1.882-.512c.682 0 1.314.171 1.898.512.583.33 1.056.814 1.419 1.452.363.627.545 1.392.545 2.294 0 .892-.182 1.656-.545 2.294a3.907 3.907 0 0 1-1.419 1.453 3.792 3.792 0 0 1-1.898.495Zm0-1.551c.594 0 1.061-.248 1.402-.743.342-.495.512-1.144.512-1.948 0-.814-.17-1.469-.512-1.964-.341-.495-.808-.742-1.402-.742-.595 0-1.062.247-1.403.742-.33.495-.496 1.15-.496 1.964 0 .804.166 1.453.496 1.948.341.495.808.743 1.403.743ZM436 216v-8.104h1.568l.132 1.089h.066c.364-.352.76-.654 1.189-.907.429-.253.919-.38 1.469-.38.869 0 1.502.281 1.898.842.396.561.594 1.353.594 2.377V216h-1.898v-4.836c0-.671-.099-1.144-.297-1.419-.198-.275-.523-.413-.974-.413-.352 0-.666.088-.941.264-.264.165-.566.413-.908.743V216H436Zm11.497.198c-.55 0-1.1-.104-1.65-.314a5.507 5.507 0 0 1-1.42-.808l.892-1.222c.363.275.726.496 1.089.661.363.165.748.247 1.155.247.44 0 .765-.093.974-.28a.897.897 0 0 0 .314-.694.686.686 0 0 0-.265-.561 2.136 2.136 0 0 0-.643-.396 14.303 14.303 0 0 0-.825-.347 8.886 8.886 0 0 1-1.057-.478 2.749 2.749 0 0 1-.841-.743c-.221-.308-.331-.688-.331-1.139 0-.715.264-1.298.793-1.749.528-.451 1.243-.677 2.145-.677.572 0 1.084.099 1.535.297.451.198.842.424 1.172.677l-.875 1.155a4.114 4.114 0 0 0-.874-.495 2.146 2.146 0 0 0-.908-.198c-.407 0-.71.088-.908.264a.781.781 0 0 0-.297.627c0 .319.165.561.495.726.33.166.715.325 1.155.479.375.132.738.297 1.09.495.352.187.643.435.874.743.243.308.364.715.364 1.221 0 .694-.27 1.288-.809 1.783-.539.484-1.321.726-2.344.726Zm-84.595 20a5.58 5.58 0 0 1-2.112-.413 5.505 5.505 0 0 1-1.783-1.171l1.122-1.304c.386.363.826.66 1.321.891.495.22.99.33 1.485.33.617 0 1.084-.126 1.403-.38a1.22 1.22 0 0 0 .479-1.006c0-.451-.16-.776-.479-.974a8.357 8.357 0 0 0-1.188-.611l-1.486-.643a5.915 5.915 0 0 1-1.039-.595 3.043 3.043 0 0 1-.826-.924c-.209-.374-.313-.825-.313-1.353 0-.573.154-1.084.462-1.535a3.287 3.287 0 0 1 1.287-1.09c.55-.275 1.178-.412 1.882-.412.627 0 1.232.126 1.815.379a4.572 4.572 0 0 1 1.502.991l-.973 1.221a4.396 4.396 0 0 0-1.09-.677 3.074 3.074 0 0 0-1.254-.247c-.506 0-.919.115-1.238.346-.308.22-.462.529-.462.925 0 .275.077.506.231.693.165.176.38.33.644.462.264.121.544.242.841.363l1.469.611c.639.275 1.161.638 1.568 1.089.407.44.611 1.051.611 1.832 0 .583-.154 1.117-.462 1.601-.308.484-.754.875-1.337 1.172-.572.286-1.265.429-2.08.429Zm8.086 0c-.869 0-1.502-.281-1.898-.842-.396-.561-.594-1.353-.594-2.376v-5.084h1.898v4.836c0 .671.099 1.144.297 1.419.198.276.517.413.958.413.352 0 .66-.088.924-.264.275-.176.567-.462.875-.858v-5.546h1.898V236h-1.552l-.148-1.188h-.05a4.689 4.689 0 0 1-1.155 1.006c-.418.254-.902.38-1.453.38Zm10.69 0c-.77 0-1.507-.352-2.212-1.056h-.049l-.165.858h-1.502v-11.652h1.898v3.003l-.05 1.354a4.673 4.673 0 0 1 1.123-.726 2.904 2.904 0 0 1 1.221-.281c1.012 0 1.799.374 2.36 1.122.561.749.842 1.744.842 2.988 0 .924-.165 1.716-.495 2.376-.33.65-.759 1.15-1.287 1.502a2.995 2.995 0 0 1-1.684.512Zm-.396-1.568c.539 0 .99-.236 1.353-.71.363-.473.545-1.166.545-2.079 0-.814-.138-1.447-.413-1.898-.275-.451-.72-.677-1.337-.677-.572 0-1.166.303-1.782.908v3.779c.286.242.567.419.842.529.286.099.55.148.792.148Zm7.965 1.568a4.597 4.597 0 0 1-1.651-.314 5.5 5.5 0 0 1-1.419-.808l.891-1.222c.363.275.726.496 1.089.661.363.165.749.247 1.156.247.44 0 .764-.093.973-.28a.894.894 0 0 0 .314-.694.688.688 0 0 0-.264-.561 2.142 2.142 0 0 0-.644-.396 14.303 14.303 0 0 0-.825-.347 8.946 8.946 0 0 1-1.056-.478 2.752 2.752 0 0 1-.842-.743c-.22-.308-.33-.688-.33-1.139 0-.715.264-1.298.792-1.749.528-.451 1.243-.677 2.146-.677.572 0 1.084.099 1.535.297.451.198.841.424 1.172.677l-.875 1.155a4.12 4.12 0 0 0-.875-.495 2.142 2.142 0 0 0-.908-.198c-.407 0-.709.088-.908.264a.781.781 0 0 0-.297.627c0 .319.165.561.496.726.33.166.715.325 1.155.479.374.132.737.297 1.089.495.352.187.644.435.875.743.242.308.363.715.363 1.221 0 .694-.27 1.288-.809 1.783-.539.484-1.32.726-2.343.726Zm8.23 0c-.737 0-1.403-.165-1.997-.495a3.788 3.788 0 0 1-1.403-1.453c-.341-.638-.512-1.402-.512-2.294 0-.902.187-1.667.562-2.294a3.765 3.765 0 0 1 1.485-1.452 4.15 4.15 0 0 1 2.014-.512c.517 0 .968.088 1.353.264.385.176.726.391 1.023.644l-.924 1.238a2.527 2.527 0 0 0-.644-.429 1.563 1.563 0 0 0-.709-.165c-.65 0-1.183.247-1.601.742-.407.495-.611 1.15-.611 1.964 0 .804.198 1.453.594 1.948.407.495.93.743 1.568.743.319 0 .616-.066.891-.198a4.25 4.25 0 0 0 .776-.496l.776 1.255c-.374.33-.792.577-1.255.742a4.074 4.074 0 0 1-1.386.248Zm4.24-.198v-8.104h1.568l.132 1.436h.066c.286-.528.633-.93 1.04-1.205.407-.286.825-.429 1.255-.429.385 0 .693.055.924.165l-.33 1.651a3.464 3.464 0 0 0-.396-.099 2.549 2.549 0 0 0-.446-.033c-.319 0-.655.126-1.007.379-.352.242-.655.671-.908 1.288V236h-1.898Zm6.157 0v-8.104h1.898V236h-1.898Zm.958-9.523c-.341 0-.616-.099-.826-.297-.209-.198-.313-.463-.313-.793 0-.319.104-.577.313-.775.21-.198.485-.297.826-.297.341 0 .616.099.825.297.209.198.314.456.314.775 0 .33-.105.595-.314.793-.209.198-.484.297-.825.297Zm3.362 12.725v-11.306h1.568l.132.858h.066a5.8 5.8 0 0 1 1.139-.742 2.952 2.952 0 0 1 1.304-.314c1.012 0 1.793.374 2.343 1.122.562.749.842 1.75.842 3.004 0 .925-.165 1.717-.495 2.377-.33.649-.759 1.144-1.287 1.485a2.993 2.993 0 0 1-1.684.512c-.352 0-.704-.077-1.056-.231a4.75 4.75 0 0 1-1.023-.66l.049 1.353v2.542h-1.898Zm3.532-4.572c.539 0 .99-.236 1.354-.71.363-.473.544-1.166.544-2.079 0-.814-.137-1.447-.412-1.898-.276-.451-.721-.677-1.337-.677-.573 0-1.167.303-1.783.908v3.779c.297.242.583.419.858.529.275.099.534.148.776.148Zm8.269 1.568c-.935 0-1.601-.27-1.997-.809-.385-.55-.578-1.26-.578-2.129v-3.862h-1.155v-1.419l1.254-.083.231-2.212h1.585v2.212h2.063v1.502h-2.063v3.862c0 .946.379 1.42 1.139 1.42.143 0 .291-.017.445-.05.154-.044.286-.088.396-.132l.33 1.403c-.22.077-.473.143-.759.198a3.812 3.812 0 0 1-.891.099Zm3.108-.198v-8.104h1.898V236h-1.898Zm.958-9.523c-.342 0-.617-.099-.826-.297-.209-.198-.313-.463-.313-.793 0-.319.104-.577.313-.775.209-.198.484-.297.826-.297.341 0 .616.099.825.297.209.198.313.456.313.775 0 .33-.104.595-.313.793-.209.198-.484.297-.825.297Zm6.679 9.721a3.756 3.756 0 0 1-1.881-.495 3.91 3.91 0 0 1-1.42-1.453c-.363-.638-.544-1.402-.544-2.294 0-.902.181-1.667.544-2.294.363-.638.837-1.122 1.42-1.452a3.663 3.663 0 0 1 1.881-.512c.683 0 1.315.171 1.898.512.584.33 1.057.814 1.42 1.452.363.627.544 1.392.544 2.294 0 .892-.181 1.656-.544 2.294a3.902 3.902 0 0 1-1.42 1.453 3.787 3.787 0 0 1-1.898.495Zm0-1.551c.595 0 1.062-.248 1.403-.743.341-.495.512-1.144.512-1.948 0-.814-.171-1.469-.512-1.964-.341-.495-.808-.742-1.403-.742-.594 0-1.061.247-1.403.742-.33.495-.495 1.15-.495 1.964 0 .804.165 1.453.495 1.948.342.495.809.743 1.403.743Zm5.741 1.353v-8.104h1.568l.132 1.089h.066a6.268 6.268 0 0 1 1.189-.907c.429-.253.918-.38 1.469-.38.869 0 1.501.281 1.898.842.396.561.594 1.353.594 2.377V236h-1.898v-4.836c0-.671-.099-1.144-.297-1.419-.198-.275-.523-.413-.974-.413-.352 0-.666.088-.941.264a5.764 5.764 0 0 0-.908.743V236h-1.898Zm11.497.198c-.55 0-1.1-.104-1.65-.314a5.49 5.49 0 0 1-1.42-.808l.891-1.222a5.77 5.77 0 0 0 1.09.661c.363.165.748.247 1.155.247.44 0 .765-.093.974-.28a.896.896 0 0 0 .313-.694.688.688 0 0 0-.264-.561 2.136 2.136 0 0 0-.643-.396c-.264-.121-.54-.237-.826-.347a8.946 8.946 0 0 1-1.056-.478 2.752 2.752 0 0 1-.842-.743c-.22-.308-.33-.688-.33-1.139 0-.715.264-1.298.792-1.749.529-.451 1.244-.677 2.146-.677.572 0 1.084.099 1.535.297.451.198.842.424 1.172.677l-.875 1.155a4.12 4.12 0 0 0-.875-.495 2.138 2.138 0 0 0-.907-.198c-.408 0-.71.088-.908.264a.781.781 0 0 0-.297.627c0 .319.165.561.495.726.33.166.715.325 1.155.479.374.132.737.297 1.09.495.352.187.643.435.874.743.242.308.363.715.363 1.221 0 .694-.269 1.288-.808 1.783-.539.484-1.321.726-2.344.726Z"/></g><g filter="url(#e)"><rect width="102" height="64" x="146" y="188" fill="#fff" rx="11.003"/><rect width="100" height="62" x="147" y="189" stroke="#C5E8ED" stroke-width="2" rx="10.003"/><path fill="#000" d="M164.902 226.198a5.58 5.58 0 0 1-2.112-.413 5.505 5.505 0 0 1-1.783-1.171l1.122-1.304c.385.363.826.66 1.321.891.495.22.99.33 1.485.33.616 0 1.084-.126 1.403-.38a1.22 1.22 0 0 0 .479-1.006c0-.451-.16-.776-.479-.974a8.357 8.357 0 0 0-1.188-.611l-1.486-.643a5.915 5.915 0 0 1-1.039-.595 3.03 3.03 0 0 1-.826-.924c-.209-.374-.313-.825-.313-1.353 0-.573.154-1.084.462-1.535a3.287 3.287 0 0 1 1.287-1.09c.55-.275 1.178-.412 1.882-.412.627 0 1.232.126 1.815.379a4.583 4.583 0 0 1 1.502.991l-.974 1.221a4.373 4.373 0 0 0-1.089-.677 3.074 3.074 0 0 0-1.254-.247c-.506 0-.919.115-1.238.346-.308.22-.462.529-.462.925 0 .275.077.506.231.693.165.176.379.33.644.462.264.121.544.242.841.363l1.469.611c.638.275 1.161.638 1.568 1.089.407.44.611 1.051.611 1.832 0 .583-.154 1.117-.462 1.601-.308.484-.754.875-1.337 1.172-.572.286-1.266.429-2.08.429Zm8.097 0c-.936 0-1.601-.27-1.997-.809-.385-.55-.578-1.26-.578-2.129v-3.862h-1.155v-1.419l1.254-.083.231-2.212h1.585v2.212h2.063v1.502h-2.063v3.862c0 .946.379 1.42 1.138 1.42.143 0 .292-.017.446-.05.154-.044.286-.088.396-.132l.33 1.403c-.22.077-.473.143-.759.198a3.812 3.812 0 0 1-.891.099Zm3.108-.198v-8.104h1.568l.132 1.436h.066c.286-.528.633-.93 1.04-1.205.407-.286.825-.429 1.254-.429.385 0 .693.055.925.165l-.331 1.651a3.464 3.464 0 0 0-.396-.099 2.537 2.537 0 0 0-.445-.033c-.319 0-.655.126-1.007.379-.352.242-.655.671-.908 1.288V226h-1.898Zm9.462.198c-.748 0-1.425-.165-2.03-.495a3.716 3.716 0 0 1-1.436-1.453c-.352-.638-.528-1.402-.528-2.294 0-.88.176-1.639.528-2.277.363-.639.831-1.128 1.403-1.469a3.463 3.463 0 0 1 1.799-.512c.737 0 1.353.165 1.848.495.496.319.87.77 1.123 1.354.253.572.379 1.237.379 1.997 0 .396-.027.704-.082.924h-5.15c.088.715.347 1.271.776 1.667.429.396.968.594 1.618.594.352 0 .676-.049.973-.148.308-.11.611-.259.908-.446l.644 1.188a5.812 5.812 0 0 1-1.288.627 4.45 4.45 0 0 1-1.485.248Zm-2.162-5.017h3.598c0-.628-.138-1.117-.413-1.469-.275-.363-.687-.545-1.238-.545-.473 0-.896.176-1.27.528-.364.341-.589.836-.677 1.486Zm8.832 5.017c-.704 0-1.282-.22-1.733-.66-.44-.44-.66-1.012-.66-1.717 0-.869.379-1.54 1.138-2.013.76-.484 1.97-.814 3.632-.991-.011-.429-.127-.797-.347-1.105-.209-.319-.589-.479-1.139-.479-.396 0-.787.077-1.172.231a8.099 8.099 0 0 0-1.106.561l-.693-1.271a8.125 8.125 0 0 1 1.519-.742 5.247 5.247 0 0 1 1.815-.314c1.013 0 1.766.303 2.261.908.507.594.76 1.458.76 2.591V226h-1.568l-.132-.891h-.066a5.878 5.878 0 0 1-1.172.775c-.407.21-.853.314-1.337.314Zm.611-1.485c.33 0 .627-.077.891-.231.275-.165.566-.386.875-.661v-1.815c-1.101.143-1.865.357-2.295.644-.429.275-.643.616-.643 1.023 0 .363.11.627.33.792.22.165.5.248.842.248Zm5.935 1.287v-8.104h1.568l.132 1.106h.066c.341-.363.71-.671 1.106-.924.407-.253.864-.38 1.37-.38.594 0 1.067.132 1.419.396.363.253.638.605.826 1.056a6.511 6.511 0 0 1 1.204-1.039 2.55 2.55 0 0 1 1.403-.413c.859 0 1.491.281 1.898.842.407.561.611 1.353.611 2.377V226h-1.915v-4.836c0-.671-.104-1.144-.313-1.419-.198-.275-.506-.413-.924-.413-.507 0-1.073.336-1.7 1.007V226h-1.898v-4.836c0-.671-.105-1.144-.314-1.419-.198-.275-.512-.413-.941-.413-.506 0-1.073.336-1.7 1.007V226h-1.898Zm13.91 0v-8.104h1.898V226h-1.898Zm.957-9.523c-.341 0-.616-.099-.825-.297-.209-.198-.314-.463-.314-.793 0-.319.105-.577.314-.775.209-.198.484-.297.825-.297.341 0 .616.099.825.297.21.198.314.456.314.775 0 .33-.104.595-.314.793-.209.198-.484.297-.825.297Zm3.363 9.523v-8.104h1.568l.132 1.089h.066a6.294 6.294 0 0 1 1.188-.907c.429-.253.919-.38 1.469-.38.869 0 1.502.281 1.898.842.396.561.594 1.353.594 2.377V226h-1.898v-4.836c0-.671-.099-1.144-.297-1.419-.198-.275-.523-.413-.974-.413-.352 0-.666.088-.941.264a5.763 5.763 0 0 0-.907.743V226h-1.898Zm12.058 3.582a6.022 6.022 0 0 1-1.733-.232c-.507-.154-.908-.39-1.205-.709-.286-.308-.429-.699-.429-1.172 0-.671.385-1.249 1.155-1.733v-.066a1.727 1.727 0 0 1-.528-.528c-.132-.22-.198-.495-.198-.825 0-.32.088-.606.264-.859.187-.264.396-.478.627-.643v-.066a2.984 2.984 0 0 1-.743-.875 2.561 2.561 0 0 1-.313-1.271c0-.627.148-1.155.445-1.585a2.812 2.812 0 0 1 1.172-.973 3.701 3.701 0 0 1 1.585-.347c.22 0 .429.022.627.066.209.033.396.077.561.132h2.905v1.403h-1.486c.132.154.242.352.33.594.088.231.132.49.132.776 0 .594-.137 1.1-.412 1.518a2.6 2.6 0 0 1-1.106.925 3.721 3.721 0 0 1-2.096.264 2.707 2.707 0 0 1-.561-.165c-.121.11-.22.22-.297.33a.86.86 0 0 0-.099.445c0 .231.093.413.28.545.198.132.545.198 1.04.198h1.436c.979 0 1.716.16 2.212.479.506.308.759.814.759 1.518 0 .528-.176 1.007-.528 1.436-.352.44-.853.787-1.502 1.04s-1.414.38-2.294.38Zm.099-7.345c.385 0 .715-.143.99-.429.275-.286.412-.688.412-1.205 0-.506-.137-.897-.412-1.172a1.291 1.291 0 0 0-.99-.429c-.397 0-.732.137-1.007.413-.275.275-.413.671-.413 1.188 0 .517.138.919.413 1.205.275.286.61.429 1.007.429Zm.198 6.107c.649 0 1.177-.132 1.584-.396.407-.265.611-.567.611-.908 0-.319-.127-.534-.38-.644-.242-.11-.594-.165-1.056-.165h-1.106a4.49 4.49 0 0 1-1.106-.115c-.418.319-.627.676-.627 1.072 0 .363.187.644.561.842.374.209.88.314 1.519.314Z"/></g><g filter="url(#f)"><rect width="216" height="44" x="299" y="104" fill="#F5E3CE" rx="11.003"/><rect width="214" height="42" x="300" y="105" stroke="#D5B999" stroke-width="2" rx="10.003"/><path fill="#000" d="M383.129 132v-10.794h1.915v9.177h4.489V132h-6.404Zm11.228.198a3.757 3.757 0 0 1-1.882-.495 3.907 3.907 0 0 1-1.419-1.453c-.363-.638-.545-1.402-.545-2.294 0-.902.182-1.667.545-2.294.363-.638.836-1.122 1.419-1.452a3.664 3.664 0 0 1 1.882-.512c.682 0 1.315.171 1.898.512.583.33 1.056.814 1.419 1.452.363.627.545 1.392.545 2.294 0 .892-.182 1.656-.545 2.294a3.907 3.907 0 0 1-1.419 1.453 3.79 3.79 0 0 1-1.898.495Zm0-1.551c.594 0 1.061-.248 1.403-.743.341-.495.511-1.144.511-1.948 0-.814-.17-1.469-.511-1.964-.342-.495-.809-.742-1.403-.742-.595 0-1.062.247-1.403.742-.33.495-.495 1.15-.495 1.964 0 .804.165 1.453.495 1.948.341.495.808.743 1.403.743Zm8.563 4.935a6.026 6.026 0 0 1-1.733-.232c-.506-.154-.908-.39-1.205-.709-.286-.308-.429-.699-.429-1.172 0-.671.385-1.249 1.155-1.733v-.066a1.727 1.727 0 0 1-.528-.528c-.132-.22-.198-.495-.198-.825 0-.32.088-.606.264-.859.187-.264.396-.478.627-.643v-.066c-.275-.21-.522-.501-.743-.875a2.561 2.561 0 0 1-.313-1.271c0-.627.148-1.155.446-1.585a2.81 2.81 0 0 1 1.171-.973 3.708 3.708 0 0 1 1.585-.347c.22 0 .429.022.627.066.209.033.396.077.561.132h2.905v1.403h-1.485c.132.154.242.352.33.594.088.231.132.49.132.776 0 .594-.138 1.1-.413 1.518a2.6 2.6 0 0 1-1.106.925 3.721 3.721 0 0 1-2.096.264 2.707 2.707 0 0 1-.561-.165c-.121.11-.22.22-.297.33a.86.86 0 0 0-.099.445c0 .231.093.413.28.545.199.132.545.198 1.04.198h1.436c.98 0 1.717.16 2.212.479.506.308.759.814.759 1.518 0 .528-.176 1.007-.528 1.436-.352.44-.853.787-1.502 1.04s-1.414.38-2.294.38Zm.099-7.345c.385 0 .715-.143.99-.429.275-.286.413-.688.413-1.205 0-.506-.138-.897-.413-1.172a1.291 1.291 0 0 0-.99-.429c-.396 0-.732.137-1.007.413-.275.275-.413.671-.413 1.188 0 .517.138.919.413 1.205.275.286.611.429 1.007.429Zm.198 6.107c.649 0 1.177-.132 1.584-.396.407-.265.611-.567.611-.908 0-.319-.126-.534-.38-.644-.242-.11-.594-.165-1.056-.165h-1.106c-.44 0-.808-.038-1.106-.115-.418.319-.627.676-.627 1.072 0 .363.187.644.561.842.375.209.881.314 1.519.314Zm5.455-2.344v-8.104h1.898V132h-1.898Zm.958-9.523c-.342 0-.617-.099-.826-.297-.209-.198-.313-.463-.313-.793 0-.319.104-.577.313-.775.209-.198.484-.297.826-.297.341 0 .616.099.825.297.209.198.313.456.313.775 0 .33-.104.595-.313.793-.209.198-.484.297-.825.297Zm6.745 9.721c-.737 0-1.403-.165-1.997-.495a3.795 3.795 0 0 1-1.403-1.453c-.341-.638-.511-1.402-.511-2.294 0-.902.187-1.667.561-2.294a3.765 3.765 0 0 1 1.485-1.452 4.156 4.156 0 0 1 2.014-.512c.517 0 .968.088 1.353.264.385.176.727.391 1.024.644l-.925 1.238a2.522 2.522 0 0 0-.643-.429 1.567 1.567 0 0 0-.71-.165c-.649 0-1.183.247-1.601.742-.407.495-.611 1.15-.611 1.964 0 .804.198 1.453.594 1.948.408.495.93.743 1.568.743.32 0 .617-.066.892-.198.286-.143.544-.309.775-.496l.776 1.255c-.374.33-.792.577-1.254.742a4.075 4.075 0 0 1-1.387.248Zm6.044 0c-.705 0-1.282-.22-1.733-.66-.441-.44-.661-1.012-.661-1.717 0-.869.38-1.54 1.139-2.013.759-.484 1.97-.814 3.631-.991-.011-.429-.126-.797-.346-1.105-.209-.319-.589-.479-1.139-.479-.396 0-.787.077-1.172.231a8.041 8.041 0 0 0-1.106.561l-.693-1.271a8.115 8.115 0 0 1 1.518-.742 5.257 5.257 0 0 1 1.816-.314c1.012 0 1.766.303 2.261.908.506.594.759 1.458.759 2.591V132h-1.568l-.132-.891h-.066a5.842 5.842 0 0 1-1.171.775c-.408.21-.853.314-1.337.314Zm.61-1.485c.33 0 .627-.077.892-.231a5.89 5.89 0 0 0 .874-.661v-1.815c-1.1.143-1.865.357-2.294.644-.429.275-.644.616-.644 1.023 0 .363.11.627.331.792.22.165.5.248.841.248Zm7.784 1.485c-.671 0-1.149-.204-1.436-.611-.275-.407-.412-.962-.412-1.667v-9.572h1.898v9.671c0 .231.044.397.132.496a.395.395 0 0 0 .281.132h.115c.044-.011.105-.022.182-.033l.247 1.419c-.11.044-.253.083-.429.116a2.982 2.982 0 0 1-.578.049Z"/></g><path fill="#5F7287" d="M78.293 188.707a1 1 0 0 0 1.414 0l6.364-6.364a1 1 0 1 0-1.414-1.414L79 186.586l-5.657-5.657a1 1 0 1 0-1.414 1.414l6.364 6.364ZM138 148v5.662h2V148h-2Zm-11 16.662H91v2h36v-2Zm-49 13V188h2v-10.338h-2Zm13-13c-7.18 0-13 5.821-13 13h2c0-6.075 4.925-11 11-11v-2Zm47-11c0 6.075-4.925 11-11 11v2c7.18 0 13-5.82 13-13h-2Z"/><path fill="#5F7287" d="M199.707 188.707a.999.999 0 0 1-1.414 0l-6.364-6.364a.999.999 0 1 1 1.414-1.414l5.657 5.657 5.657-5.657a.999.999 0 1 1 1.414 1.414l-6.364 6.364ZM140 148v5.662h-2V148h2Zm11 16.662h36v2h-36v-2Zm49 13V188h-2v-10.338h2Zm-13-13c7.18 0 13 5.821 13 13h-2c0-6.075-4.925-11-11-11v-2Zm-47-11c0 6.075 4.925 11 11 11v2c-7.18 0-13-5.82-13-13h2ZM139.293 104.707a.999.999 0 0 0 1.414 0l6.364-6.364a1 1 0 1 0-1.414-1.414L140 102.586l-5.657-5.657a1 1 0 1 0-1.414 1.414l6.364 6.364ZM273 64v5.662h2V64h-2Zm-11 16.662H152v2h110v-2Zm-123 13V104h2V93.662h-2Zm13-13c-7.18 0-13 5.82-13 13h2c0-6.075 4.925-11 11-11v-2Zm121-11c0 6.075-4.925 11-11 11v2c7.18 0 13-5.82 13-13h-2Z"/><path fill="#5F7287" d="M407.707 104.707a.999.999 0 0 1-1.414 0l-6.364-6.364a1 1 0 1 1 1.414-1.414l5.657 5.657 5.657-5.657a1 1 0 1 1 1.414 1.414l-6.364 6.364ZM275 64v5.662h-2V64h2Zm11 16.662h109v2H286v-2Zm122 13V104h-2V93.662h2Zm-13-13c7.18 0 13 5.82 13 13h-2c0-6.075-4.925-11-11-11v-2Zm-120-11c0 6.075 4.925 11 11 11v2c-7.18 0-13-5.82-13-13h2ZM406.293 188.707a.999.999 0 0 0 1.414 0l6.364-6.364a.999.999 0 1 0-1.414-1.414L407 186.586l-5.657-5.657a.999.999 0 1 0-1.414 1.414l6.364 6.364ZM406 148v40h2v-40h-2Z"/><defs><filter id="a" width="516.01" height="77.01" x="15.495" y="8.246" color-interpolation-filters="sRGB" filterUnits="userSpaceOnUse"><feFlood flood-opacity="0" result="BackgroundImageFix"/><feColorMatrix in="SourceAlpha" result="hardAlpha" values="0 0 0 0 0 0 0 0 0 0 0 0 0 0 0 0 0 0 127 0"/><feOffset dy="2.751"/><feGaussianBlur stdDeviation="8.252"/><feColorMatrix values="0 0 0 0 0.231389 0 0 0 0 0.231389 0 0 0 0 0.566667 0 0 0 0.1 0"/><feBlend in2="BackgroundImageFix" result="effect1_dropShadow_4446_163"/><feBlend in="SourceGraphic" in2="effect1_dropShadow_4446_163" result="shape"/></filter><filter id="b" width="249.01" height="77.01" x="15.495" y="90.246" color-interpolation-filters="sRGB" filterUnits="userSpaceOnUse"><feFlood flood-opacity="0" result="BackgroundImageFix"/><feColorMatrix in="SourceAlpha" result="hardAlpha" values="0 0 0 0 0 0 0 0 0 0 0 0 0 0 0 0 0 0 127 0"/><feOffset dy="2.751"/><feGaussianBlur stdDeviation="8.252"/><feColorMatrix values="0 0 0 0 0.231389 0 0 0 0 0.231389 0 0 0 0 0.566667 0 0 0 0.1 0"/><feBlend in2="BackgroundImageFix" result="effect1_dropShadow_4446_163"/><feBlend in="SourceGraphic" in2="effect1_dropShadow_4446_163" result="shape"/></filter><filter id="c" width="127.01" height="97.01" x="15.495" y="174.246" color-interpolation-filters="sRGB" filterUnits="userSpaceOnUse"><feFlood flood-opacity="0" result="BackgroundImageFix"/><feColorMatrix in="SourceAlpha" result="hardAlpha" values="0 0 0 0 0 0 0 0 0 0 0 0 0 0 0 0 0 0 127 0"/><feOffset dy="2.751"/><feGaussianBlur stdDeviation="8.252"/><feColorMatrix values="0 0 0 0 0.231389 0 0 0 0 0.231389 0 0 0 0 0.566667 0 0 0 0.1 0"/><feBlend in2="BackgroundImageFix" result="effect1_dropShadow_4446_163"/><feBlend in="SourceGraphic" in2="effect1_dropShadow_4446_163" result="shape"/></filter><filter id="d" width="249.01" height="97.01" x="282.495" y="174.246" color-interpolation-filters="sRGB" filterUnits="userSpaceOnUse"><feFlood flood-opacity="0" result="BackgroundImageFix"/><feColorMatrix in="SourceAlpha" result="hardAlpha" values="0 0 0 0 0 0 0 0 0 0 0 0 0 0 0 0 0 0 127 0"/><feOffset dy="2.751"/><feGaussianBlur stdDeviation="8.252"/><feColorMatrix values="0 0 0 0 0.231389 0 0 0 0 0.231389 0 0 0 0 0.566667 0 0 0 0.1 0"/><feBlend in2="BackgroundImageFix" result="effect1_dropShadow_4446_163"/><feBlend in="SourceGraphic" in2="effect1_dropShadow_4446_163" result="shape"/></filter><filter id="e" width="135.01" height="97.01" x="129.495" y="174.246" color-interpolation-filters="sRGB" filterUnits="userSpaceOnUse"><feFlood flood-opacity="0" result="BackgroundImageFix"/><feColorMatrix in="SourceAlpha" result="hardAlpha" values="0 0 0 0 0 0 0 0 0 0 0 0 0 0 0 0 0 0 127 0"/><feOffset dy="2.751"/><feGaussianBlur stdDeviation="8.252"/><feColorMatrix values="0 0 0 0 0.231389 0 0 0 0 0.231389 0 0 0 0 0.566667 0 0 0 0.1 0"/><feBlend in2="BackgroundImageFix" result="effect1_dropShadow_4446_163"/><feBlend in="SourceGraphic" in2="effect1_dropShadow_4446_163" result="shape"/></filter><filter id="f" width="249.01" height="77.01" x="282.495" y="90.246" color-interpolation-filters="sRGB" filterUnits="userSpaceOnUse"><feFlood flood-opacity="0" result="BackgroundImageFix"/><feColorMatrix in="SourceAlpha" result="hardAlpha" values="0 0 0 0 0 0 0 0 0 0 0 0 0 0 0 0 0 0 127 0"/><feOffset dy="2.751"/><feGaussianBlur stdDeviation="8.252"/><feColorMatrix values="0 0 0 0 0.231389 0 0 0 0 0.231389 0 0 0 0 0.566667 0 0 0 0.1 0"/><feBlend in2="BackgroundImageFix" result="effect1_dropShadow_4446_163"/><feBlend in="SourceGraphic" in2="effect1_dropShadow_4446_163" result="shape"/></filter></defs></svg>